<?xml version="1.0" encoding="UTF-8"?>
<svg width="512" height="160" viewBox="0 0 512 160" fill="none" xmlns="http://www.w3.org/2000/svg">
  <defs>
    <linearGradient id="piloBg" x1="20" y1="20" x2="140" y2="140" gradientUnits="userSpaceOnUse">
      <stop stop-color="#2A9AFF"/>
      <stop offset="1" stop-color="#0F62C3"/>
    </linearGradient>
  </defs>

  <!-- Mark -->
  <g transform="translate(20,20)">
    <circle cx="60" cy="60" r="60" fill="url(#piloBg)"/>

    <rect x="19" y="29" width="82" height="77" rx="34" fill="#071225" fill-opacity="0.93"/>

    <circle cx="45" cy="50" r="13" fill="#F8FBFF"/>
    <circle cx="75" cy="50" r="13" fill="#F8FBFF"/>

    <!-- Pupils with tiny scan focus movement -->
    <circle cx="45" cy="50" r="5" fill="#071225">
      <animate attributeName="cx" values="45;46;45;44;45" dur="1.8s" repeatCount="indefinite"/>
    </circle>
    <circle cx="75" cy="50" r="5" fill="#071225">
      <animate attributeName="cy" values="50;49;50;51;50" dur="1.8s" repeatCount="indefinite"/>
    </circle>

    <!-- Animated scan visor -->
    <rect x="59" y="34" width="32" height="32" rx="7" stroke="#3DDC97" stroke-width="4" fill="none">
      <animate attributeName="opacity" values="1;0.65;1" dur="1.2s" repeatCount="indefinite"/>
    </rect>

    <!-- Scanning line inside visor -->
    <line x1="62" y1="38" x2="88" y2="38" stroke="#3DDC97" stroke-width="2.5" stroke-linecap="round">
      <animate attributeName="y1" values="38;62;38" dur="1.4s" repeatCount="indefinite"/>
      <animate attributeName="y2" values="38;62;38" dur="1.4s" repeatCount="indefinite"/>
      <animate attributeName="opacity" values="0.2;1;0.2" dur="1.4s" repeatCount="indefinite"/>
    </line>

    <path d="M60 60 L53 68 L67 68 Z" fill="#FFB020"/>

    <!-- Receipt tab -->
    <rect x="74" y="74" width="22" height="26" rx="3" fill="#F8FBFF" fill-opacity="0.95"/>
    <line x1="78" y1="81" x2="92" y2="81" stroke="#071225" stroke-opacity="0.7" stroke-width="2" stroke-linecap="round"/>
    <line x1="78" y1="87" x2="90" y2="87" stroke="#071225" stroke-opacity="0.7" stroke-width="2" stroke-linecap="round"/>
    <line x1="78" y1="93" x2="91" y2="93" stroke="#071225" stroke-opacity="0.7" stroke-width="2" stroke-linecap="round"/>

    <!-- Receipt scan pulse -->
    <rect x="74" y="74" width="22" height="26" rx="3" fill="#3DDC97" opacity="0">
      <animate attributeName="opacity" values="0;0.18;0" dur="1.4s" repeatCount="indefinite"/>
    </rect>
  </g>

  <!-- Wordmark -->
  <text x="170" y="96" fill="#F8FBFF" font-size="54" font-weight="700" font-family="Inter, SF Pro Display, Roboto, Arial, sans-serif" letter-spacing="0.2">BelegPilot</text>
</svg>
